<?xml version="1.0" standalone="no"?>
<!DOCTYPE svg PUBLIC "-//W3C//DTD SVG 20010904//EN"
 "http://www.w3.org/TR/2001/REC-SVG-20010904/DTD/svg10.dtd">
<svg version="1.0" xmlns="http://www.w3.org/2000/svg"
 width="141.000000pt" height="162.000000pt" viewBox="0 0 141.000000 162.000000"
 preserveAspectRatio="xMidYMid meet">

<g transform="translate(0.000000,162.000000) scale(0.100000,-0.100000)"
fill="#000000" stroke="none">
<path d="M435 1596 c-33 -15 -90 -69 -107 -100 -6 -12 10 0 35 27 57 60 111
80 187 71 53 -6 132 -45 161 -80 7 -8 28 -22 47 -30 41 -17 42 -17 42 -5 0 5
-10 11 -22 15 -13 3 -56 30 -96 61 l-73 55 -72 0 c-40 -1 -85 -7 -102 -14z"/>
<path d="M1005 1530 c-110 -40 -150 -59 -127 -60 13 0 49 12 80 27 77 37 154
35 231 -4 58 -30 88 -74 118 -173 13 -44 13 -44 9 -7 -6 50 -50 144 -78 167
-25 21 -106 54 -153 62 -17 3 -52 -2 -80 -12z"/>
<path d="M435 1498 c-98 -67 -140 -217 -96 -342 11 -33 31 -70 43 -83 24 -26
26 -23 -32 -59 -32 -20 -80 -106 -80 -144 0 -28 -14 -41 -22 -21 -1 4 -25 27
-53 51 -27 23 -55 52 -62 64 -30 52 2 186 69 284 17 24 28 46 25 48 -7 8 -68
-93 -93 -154 -12 -31 -25 -78 -29 -104 -6 -41 -3 -54 23 -100 39 -68 58 -139
43 -166 -10 -19 -9 -19 27 -6 54 19 84 18 80 -3 -2 -10 5 -25 16 -34 12 -10
19 -30 21 -55 2 -36 -1 -42 -26 -51 -22 -9 -29 -18 -29 -38 0 -22 -4 -25 -27
-23 -20 2 -30 -4 -42 -24 -19 -33 -7 -61 27 -66 16 -3 22 -12 24 -40 3 -36 4
-37 43 -37 35 0 42 4 54 32 10 22 22 33 39 35 36 4 48 51 21 77 -16 15 -18 22
-8 49 6 18 17 32 25 32 7 0 39 -13 69 -30 30 -16 64 -30 75 -30 11 0 20 -4 20
-9 0 -5 45 -12 100 -16 56 -4 103 -12 107 -19 4 -6 8 -48 9 -93 0 -80 1 -83
42 -136 34 -45 51 -58 94 -73 68 -22 161 -20 210 5 87 44 139 160 117 259 -11
52 -67 125 -109 142 -34 14 -38 25 -12 39 13 8 23 5 42 -14 73 -69 83 -77 75
-58 -28 66 -15 97 83 189 l64 62 -4 101 c-2 60 -9 106 -16 113 -9 9 -9 4 -2
-23 6 -18 10 -62 10 -97 0 -99 -20 -126 -143 -187 -64 -32 -87 -39 -81 -27 28
63 7 154 -47 210 l-32 32 29 23 c15 12 33 27 40 32 41 33 88 169 82 234 -7 61
-50 153 -88 185 -125 105 -299 -38 -300 -246 0 -26 5 -59 10 -74 6 -15 9 -28
8 -30 -9 -8 -208 21 -208 31 0 11 20 59 41 97 15 28 10 128 -8 178 -50 136
-154 179 -258 108z m164 -9 c50 -28 85 -108 85 -198 0 -52 -6 -79 -28 -129
-31 -67 -30 -66 -124 -77 -29 -3 -64 -11 -79 -18 -23 -10 -28 -8 -54 21 -67
74 -75 207 -19 317 25 49 40 66 73 83 54 27 100 27 146 1z m511 -54 c133 -69
132 -347 -1 -431 l-39 -24 -40 25 c-22 14 -62 34 -88 44 -60 23 -72 47 -72
141 0 59 5 86 25 125 54 112 139 159 215 120z m-281 -370 c85 -22 184 -70 228
-110 21 -19 42 -35 46 -35 13 0 57 -103 57 -133 0 -34 -34 -104 -64 -129 -37
-33 -92 -57 -177 -79 -68 -18 -101 -21 -174 -16 -94 6 -228 42 -294 80 -83 47
-161 150 -161 212 0 39 46 121 82 148 30 22 122 59 173 70 50 11 231 6 284 -8z
m-595 -256 c-9 -14 -34 -10 -34 5 0 8 -3 23 -7 33 -5 15 -1 13 20 -6 15 -13
24 -28 21 -32z m1004 -118 c-23 -30 -39 -34 -45 -14 -2 5 11 17 29 26 43 22
43 22 16 -12z m-864 -16 c18 -14 19 -17 3 -66 -10 -28 -17 -57 -17 -65 0 -7
-5 -16 -10 -19 -7 -4 -10 24 -9 79 1 47 5 86 8 86 3 0 15 -7 25 -15z m672
-112 c-4 -21 -10 -57 -13 -80 -9 -69 -23 -50 -23 31 0 71 5 83 34 85 5 1 5
-16 2 -36z m100 0 c-10 -10 -19 5 -10 18 6 11 8 11 12 0 2 -7 1 -15 -2 -18z
m-47 -27 c7 -13 10 -32 7 -43 -6 -20 -56 -50 -56 -34 0 5 6 11 14 14 17 7 27
58 14 75 -6 7 -7 12 -1 12 5 0 15 -11 22 -24z m-131 -28 c1 -13 4 -38 8 -56 8
-41 -14 -69 -63 -78 -26 -5 -37 -2 -48 12 -24 31 -18 73 12 98 63 49 91 56 91
24z m220 -50 c7 -7 12 -18 12 -25 0 -8 -7 -6 -20 7 -24 24 -29 24 -58 4 -41
-28 -19 -99 29 -92 13 1 28 13 34 26 9 20 25 31 25 16 0 -21 -47 -65 -91 -84
-29 -12 -59 -28 -66 -36 -30 -30 -103 -10 -103 29 0 21 1 21 25 -6 30 -32 38
-33 65 -10 24 21 26 55 5 73 -27 23 -17 49 33 80 50 31 90 38 110 18z m57 2
c3 -5 -1 -10 -9 -10 -9 0 -16 5 -16 10 0 6 4 10 9 10 6 0 13 -4 16 -10z m-271
-114 c-17 -13 -19 -13 -22 1 -5 19 19 36 32 23 6 -6 3 -15 -10 -24z m-39 -67
c10 -15 -1 -23 -20 -15 -9 3 -13 10 -10 16 8 13 22 13 30 -1z"/>
<path d="M552 1204 c-12 -8 -22 -25 -22 -38 0 -24 28 -56 48 -56 17 0 52 41
52 61 0 16 -34 49 -50 49 -3 0 -16 -7 -28 -16z"/>
<path d="M918 1159 c-26 -14 -23 -65 3 -79 52 -28 102 28 64 70 -20 22 -41 25
-67 9z"/>
<path d="M874 466 c-3 -8 -4 -27 -2 -43 3 -25 7 -28 38 -28 28 0 36 5 44 27 7
19 6 31 -4 42 -16 20 -69 21 -76 2z"/>
<path d="M298 1453 c-24 -28 -50 -83 -44 -96 3 -8 5 -8 5 1 1 7 15 34 32 58
31 46 36 69 7 37z"/>
<path d="M1322 1230 c0 -14 3 -34 8 -45 l9 -20 -1 20 c0 11 -4 31 -8 45 l-8
25 0 -25z"/>
<path d="M1350 1123 c0 -12 5 -25 10 -28 13 -8 13 15 0 35 -8 12 -10 11 -10
-7z"/>
<path d="M66 655 c-9 -26 -7 -32 5 -12 6 10 9 21 6 23 -2 3 -7 -2 -11 -11z"/>
<path d="M45 609 c-4 -6 -5 -12 -2 -15 2 -3 7 2 10 11 7 17 1 20 -8 4z"/>
<path d="M31 507 c-2 -113 47 -180 184 -253 27 -15 38 -74 30 -171 -6 -82 -3
-91 24 -74 11 7 12 27 8 92 -4 46 -8 93 -9 104 -5 35 35 25 42 -10 14 -65 59
-113 145 -154 68 -33 224 -42 287 -16 54 21 105 69 113 106 9 38 12 39 70 28
79 -16 76 -12 54 -71 -25 -65 -27 -80 -13 -85 6 -2 22 30 37 74 16 49 32 80
44 84 11 5 -3 8 -37 9 -56 0 -140 30 -140 50 0 5 -6 10 -13 10 -7 0 -28 15
-46 34 -32 33 -34 33 -139 38 -73 4 -130 13 -178 28 l-71 23 -45 -31 c-25 -17
-48 -38 -51 -47 -15 -38 -169 5 -219 61 -34 39 -62 109 -68 173 l-7 66 -2 -68z
m443 -196 c17 -5 54 -16 81 -25 28 -9 89 -17 137 -17 79 -2 90 -4 110 -26 29
-31 30 -109 2 -146 -22 -29 -102 -57 -162 -57 -52 0 -137 17 -179 36 -17 8
-35 14 -40 14 -14 0 -70 63 -77 87 -11 36 5 95 32 120 27 25 49 28 96 14z"/>
<path d="M522 460 c-37 -23 -40 -53 -7 -58 25 -3 91 50 81 66 -11 18 -37 15
-74 -8z"/>
<path d="M1292 460 c0 -14 2 -19 5 -12 2 6 2 18 0 25 -3 6 -5 1 -5 -13z"/>
<path d="M670 451 c-25 -13 -35 -25 -35 -42 0 -20 4 -24 30 -22 37 3 80 50 63
70 -14 17 -17 17 -58 -6z"/>
<path d="M1140 190 c-8 -5 -27 -10 -42 -10 -16 0 -28 -4 -28 -10 0 -13 61 -1
80 16 17 16 12 18 -10 4z"/>
</g>
</svg>
